HIERARCHY
ROOT Hips
{
	OFFSET -0.001795 -0.223333 0.028219
	CHANNELS 6 Xposition Yposition Zposition Zrotation Yrotation Xrotation 
	JOINT LeftUpLeg
	{
		OFFSET 0.069520 -0.091406 -0.006815
		CHANNELS 3 Zrotation Yrotation Xrotation
		JOINT LeftLeg
		{
			OFFSET 0.034277 -0.375199 -0.004496
			CHANNELS 3 Zrotation Yrotation Xrotation
			JOINT LeftFoot
			{
				OFFSET -0.013596 -0.397961 -0.043693
				CHANNELS 3 Zrotation Yrotation Xrotation
				JOINT LeftToe
				{
					OFFSET 0.026358 -0.055791 0.119288
					CHANNELS 3 Zrotation Yrotation Xrotation
					End Site
					{
						OFFSET 0.000000 0.000000 0.000000
					}
				}
			}
		}
	}
	JOINT RightUpLeg
	{
		OFFSET -0.067670 -0.090522 -0.004320
		CHANNELS 3 Zrotation Yrotation Xrotation
		JOINT RightLeg
		{
			OFFSET -0.038290 -0.382569 -0.008850
			CHANNELS 3 Zrotation Yrotation Xrotation
			JOINT RightFoot
			{
				OFFSET 0.015774 -0.398415 -0.042312
				CHANNELS 3 Zrotation Yrotation Xrotation
				JOINT RightToe
				{
					OFFSET -0.025372 -0.048144 0.123348
					CHANNELS 3 Zrotation Yrotation Xrotation
					End Site
					{
						OFFSET 0.000000 0.000000 0.000000
					}
				}
			}
		}
	}
	JOINT Spine
	{
		OFFSET -0.002533 0.108963 -0.026696
		CHANNELS 3 Zrotation Yrotation Xrotation
		JOINT Spine1
		{
			OFFSET 0.005487 0.135180 0.001092
			CHANNELS 3 Zrotation Yrotation Xrotation
			JOINT Spine2
			{
				OFFSET 0.001457 0.052922 0.025425
				CHANNELS 3 Zrotation Yrotation Xrotation
				JOINT Neck
				{
					OFFSET -0.002778 0.213870 -0.042857
					CHANNELS 3 Zrotation Yrotation Xrotation
					JOINT Head
					{
						OFFSET 0.005152 0.064970 0.051349
						CHANNELS 3 Zrotation Yrotation Xrotation
						End Site
						{
							OFFSET 0.000000 0.000000 0.000000
						}
					}
				}
				JOINT LeftShoulder
				{
					OFFSET 0.078845 0.121749 -0.034090
					CHANNELS 3 Zrotation Yrotation Xrotation
					JOINT LeftArm
					{
						OFFSET 0.090977 0.030469 -0.008868
						CHANNELS 3 Zrotation Yrotation Xrotation
						JOINT LeftForeArm
						{
							OFFSET 0.259612 -0.012772 -0.027456
							CHANNELS 3 Zrotation Yrotation Xrotation
							JOINT LeftHand
							{
								OFFSET 0.249234 0.008986 -0.001171
								CHANNELS 3 Zrotation Yrotation Xrotation
								End Site
								{
									OFFSET 0.000000 0.000000 0.000000
								}
							}
						}
					}
				}
				JOINT RightShoulder
				{
					OFFSET -0.081759 0.118833 -0.038615
					CHANNELS 3 Zrotation Yrotation Xrotation
					JOINT RightArm
					{
						OFFSET -0.096012 0.032551 -0.009143
						CHANNELS 3 Zrotation Yrotation Xrotation
						JOINT RightForeArm
						{
							OFFSET -0.253742 -0.013329 -0.021401
							CHANNELS 3 Zrotation Yrotation Xrotation
							JOINT RightHand
							{
								OFFSET -0.255298 0.007772 -0.005559
								CHANNELS 3 Zrotation Yrotation Xrotation
								End Site
								{
									OFFSET 0.000000 0.000000 0.000000
								}
							}
						}
					}
				}
			}
		}
	}
}
MOTION
Frames: 13
Frame Time: 0.050000
0.000000 0.929158 0.000000 -2.398313 12.194619 -2.676314 -1.127962 0.627896 7.630503 0.815657 -0.235248 3.346683 1.003475 -1.500404 -5.474409 0.000000 0.000000 0.000000 -1.122259 1.546062 -23.043139 1.266238 -0.215122 19.987440 -3.375742 -8.438639 0.240462 0.000000 0.000000 0.000000 2.214141 -0.501948 7.476853 2.353122 -1.062925 -0.826086 -4.942184 0.784547 8.229001 10.162547 -5.130132 -12.813311 0.000000 0.000000 0.000000 -16.914649 -8.836810 0.949562 -51.431498 -5.752268 -3.585280 -6.120384 -29.567666 2.183793 0.000000 0.000000 0.000000 18.327223 -1.247834 -0.284793 59.461574 0.657417 -5.954603 3.403637 27.595968 2.305114 0.000000 0.000000 0.000000 
-0.003076 0.924094 0.033796 -2.514742 11.030657 -2.081984 -0.191208 0.703011 9.949052 -0.466557 -0.029534 2.008553 2.371370 1.525995 -5.846168 0.000000 0.000000 0.000000 -0.444320 1.767211 -23.488801 1.256633 -0.050941 12.605154 -2.757380 -7.529218 3.899398 0.000000 0.000000 0.000000 2.530066 -0.481355 6.926047 2.011864 -0.742143 -2.748559 -5.613458 1.801249 9.927694 10.703268 -4.910649 -15.213830 0.000000 0.000000 0.000000 -13.610174 -8.238280 0.970389 -53.437568 -7.296300 -3.416942 -6.758649 -30.454075 2.368189 0.000000 0.000000 0.000000 17.071876 -1.548406 -0.258094 62.655571 -0.345536 -6.700771 1.049798 26.922072 1.792106 0.000000 0.000000 0.000000 
-0.006581 0.916984 0.069998 -2.065963 11.019310 -1.422639 -0.088909 0.765978 11.200799 0.148656 -0.141012 3.058636 3.769958 2.906698 -8.966346 0.000000 0.000000 0.000000 0.510495 1.963457 -23.420967 0.709065 0.079350 10.690545 -2.883946 -7.722362 3.213238 0.000000 0.000000 0.000000 2.500758 -0.443202 6.397166 1.860141 -0.563287 -4.172712 -5.945882 2.048818 11.907674 10.202970 -4.347271 -16.341144 0.000000 0.000000 0.000000 -13.872736 -8.186600 0.913023 -53.186008 -7.595207 -3.428407 -8.514841 -30.157831 2.830266 0.000000 0.000000 0.000000 17.706463 -2.713916 -0.767120 62.063844 -0.887569 -7.140138 2.873179 26.840294 2.236061 0.000000 0.000000 0.000000 
-0.010648 0.911191 0.109190 -2.639357 10.990535 -1.051797 0.895455 0.677471 12.026385 0.688035 -0.369194 6.149523 3.987326 2.644481 -10.271088 0.000000 0.000000 0.000000 1.576348 2.284778 -24.981038 0.973794 0.021452 12.585555 -2.632091 -7.485236 5.413308 0.000000 0.000000 0.000000 3.231810 -0.404907 5.264596 1.876979 -0.641805 -3.244980 -5.631127 1.299876 11.712885 9.437426 -3.899545 -16.477185 0.000000 0.000000 0.000000 -14.832322 -7.762939 0.765990 -53.336789 -5.679630 -4.247495 -9.081706 -31.834527 3.215004 0.000000 0.000000 0.000000 16.914258 -3.106421 -1.180837 62.520256 -0.939548 -7.108824 1.505432 26.171859 1.828836 0.000000 0.000000 0.000000 
-0.014111 0.910260 0.152405 -3.315924 11.180988 -0.582391 2.582575 0.400562 10.953812 0.388917 -0.666120 11.660907 4.139632 3.663329 -9.226993 0.000000 0.000000 0.000000 3.245238 2.634812 -25.028701 0.548668 0.112485 15.536171 -1.765021 -5.912518 7.143414 0.000000 0.000000 0.000000 4.129073 -0.383220 4.308654 2.346091 -0.855694 -3.189975 -6.350143 0.737951 10.893484 10.593960 -5.192566 -14.182447 0.000000 0.000000 0.000000 -16.279919 -7.355640 0.446222 -52.608439 -4.273507 -4.640272 -9.781419 -31.635929 3.409030 0.000000 0.000000 0.000000 17.620042 -3.916026 -1.751607 62.219702 -2.845783 -7.998329 2.198518 27.631689 2.086052 0.000000 0.000000 0.000000 
-0.015847 0.912368 0.197948 -4.167331 9.159523 -0.938400 3.920843 0.244894 9.497468 -0.979859 -0.828813 19.391159 3.463722 4.767105 -4.915229 0.000000 0.000000 0.000000 4.784352 2.904694 -23.459524 1.038449 0.032874 18.363234 -1.513686 -5.382129 6.232170 0.000000 0.000000 0.000000 5.241160 -0.390700 3.851605 2.606115 -1.039610 -2.604621 -5.829929 -0.517609 10.641882 9.447884 -4.648288 -14.216784 0.000000 0.000000 0.000000 -17.225171 -5.484403 0.001063 -53.829933 -2.463046 -5.663986 -9.423187 -32.178939 3.604190 0.000000 0.000000 0.000000 17.387086 -3.110259 -1.841785 61.370837 -1.687791 -7.374692 1.814218 27.586029 1.843957 0.000000 0.000000 0.000000 
-0.016063 0.918924 0.242504 -4.881689 6.747386 -0.476624 5.124129 0.044768 5.233082 -2.700356 -0.783260 29.895285 2.688624 6.001280 1.140658 0.000000 0.000000 0.000000 6.549758 3.129995 -21.884416 0.361920 0.340713 18.978237 -0.197547 -2.654207 6.011437 0.000000 0.000000 0.000000 6.239454 -0.257581 1.981925 3.274422 -1.404095 -2.110659 -5.590097 -0.148775 10.413641 9.298701 -4.617196 -14.282561 0.000000 0.000000 0.000000 -17.363790 -5.141747 0.052108 -53.741161 -1.731704 -6.000989 -10.934286 -31.679229 4.058781 0.000000 0.000000 0.000000 16.016082 -3.252951 -2.058927 60.344116 -1.587951 -7.160301 3.392375 27.425222 2.109285 0.000000 0.000000 0.000000 
-0.014181 0.925502 0.282649 -5.306128 3.578777 -0.875390 6.949625 -0.170118 -1.122567 -6.001843 0.662529 43.039459 1.242320 6.309126 9.834121 0.000000 0.000000 0.000000 7.927566 2.928592 -18.398860 -0.409568 0.690817 18.381140 1.252951 1.217465 3.966027 0.000000 0.000000 0.000000 7.256084 -0.288826 2.187998 3.026580 -1.289262 -2.404164 -5.060745 -0.214544 10.321088 8.682183 -4.442065 -14.016189 0.000000 0.000000 0.000000 -17.873855 -5.684573 0.750366 -53.962954 -1.602745 -6.159351 -11.396252 -31.799015 4.378149 0.000000 0.000000 0.000000 14.745859 -1.651779 -1.511990 59.844806 -0.792625 -6.741502 4.966488 28.260981 2.420738 0.000000 0.000000 0.000000 
-0.009792 0.929052 0.317725 -5.259245 1.110767 -2.037916 7.802838 -0.234743 -6.686235 -8.326991 2.671158 51.456215 2.835731 8.703021 9.335872 0.000000 0.000000 0.000000 8.410991 2.285001 -13.869559 -1.800712 1.108596 17.042105 2.448604 4.709382 2.558453 0.000000 0.000000 0.000000 7.741636 -0.489122 4.284967 2.327825 -0.963705 -2.869180 -4.285429 0.501819 10.296894 9.726414 -5.241262 -13.910735 0.000000 0.000000 0.000000 -17.718070 -6.898816 1.571391 -53.639433 -3.235844 -5.456129 -11.574460 -33.022947 4.676844 0.000000 0.000000 0.000000 14.548449 -1.496944 -1.550089 58.147880 0.560154 -5.957815 6.200464 28.559766 2.690538 0.000000 0.000000 0.000000 
-0.003195 0.933706 0.350245 -4.726484 -1.429678 -2.409641 7.877641 -0.284132 -12.190764 -9.005379 3.949171 52.370060 4.945242 11.247545 4.465227 0.000000 0.000000 0.000000 7.752662 1.561985 -9.984075 -3.264800 1.416676 14.902298 3.441869 7.976554 1.268095 0.000000 0.000000 0.000000 7.236061 -0.567846 5.482348 1.923111 -0.787164 -3.268876 -3.464486 0.536616 10.445750 9.567650 -5.228280 -14.278746 0.000000 0.000000 0.000000 -18.486304 -7.498206 2.256280 -52.796615 -5.064555 -4.678932 -11.146995 -34.219200 4.869708 0.000000 0.000000 0.000000 15.696575 -0.600215 -1.483757 55.767849 1.522477 -5.343951 6.259379 30.062096 2.750522 0.000000 0.000000 0.000000 
0.005046 0.937342 0.381771 -3.826410 -4.412581 -2.686214 7.619214 -0.285677 -16.457173 -7.993868 3.786489 46.758083 5.421267 11.567045 1.677368 0.000000 0.000000 0.000000 6.501700 1.041274 -7.397426 -3.710484 1.500165 13.867391 4.086848 10.216214 0.490367 0.000000 0.000000 0.000000 6.326703 -0.580043 6.339354 1.781511 -0.754034 -3.314451 -3.095650 1.409330 10.448170 9.732314 -5.300722 -14.896799 0.000000 0.000000 0.000000 -17.292385 -7.763315 2.634233 -53.676472 -6.907092 -3.992106 -9.698974 -36.149654 4.796769 0.000000 0.000000 0.000000 15.430536 0.073373 -1.294341 55.458712 2.725915 -4.773105 6.358601 31.029644 2.808175 0.000000 0.000000 0.000000 
0.014941 0.939184 0.413663 -3.337992 -8.443579 -3.293626 7.465550 -0.139899 -17.306087 -5.500778 2.372341 34.837403 5.074982 10.670980 0.689950 0.000000 0.000000 0.000000 5.406796 0.475105 -4.138956 -4.203826 1.569504 12.791767 5.602124 13.719808 0.913603 0.000000 0.000000 0.000000 5.830492 -0.606214 7.388295 1.068648 -0.484576 -3.022249 -2.164895 1.744625 10.545831 8.831965 -4.852112 -15.281799 0.000000 0.000000 0.000000 -16.835725 -8.107658 3.301108 -53.656843 -9.135635 -3.095756 -8.248093 -37.823883 4.764254 0.000000 0.000000 0.000000 14.586980 0.789314 -1.256017 55.400823 4.031772 -4.176297 6.544407 32.193467 2.796539 0.000000 0.000000 0.000000 
0.026254 0.938915 0.446704 -3.024730 -11.826952 -3.592526 7.967016 0.095781 -16.091530 -1.518221 0.355785 19.576185 2.632977 6.322598 4.013572 0.000000 0.000000 0.000000 3.989532 0.039882 -1.166315 -4.054951 1.477713 11.873299 6.252279 15.606573 0.655162 0.000000 0.000000 0.000000 5.412987 -0.584314 7.796057 0.499057 -0.260571 -3.716685 -1.712751 1.165535 12.012398 8.431582 -4.909863 -15.374486 0.000000 0.000000 0.000000 -15.626763 -8.286466 4.010329 -54.584059 -10.970104 -2.492705 -3.855860 -38.694460 3.706317 0.000000 0.000000 0.000000 13.838938 2.153214 -0.996295 56.079670 4.459299 -4.163810 5.752381 33.693403 2.481684 0.000000 0.000000 0.000000 
